<?xml version="1.0" standalone="no"?><svg xmlns="http://www.w3.org/2000/svg" viewBox="0 0 1440 320"><path fill="#000000" fill-opacity="1" d="M0,64L30,101.3C60,139,120,213,180,208C240,203,300,117,360,112C420,107,480,181,540,208C600,235,660,213,720,197.3C780,181,840,171,900,176C960,181,1020,203,1080,229.3C1140,256,1200,288,1260,293.3C1320,299,1380,277,1410,266.7L1440,256L1440,320L1410,320C1380,320,1320,320,1260,320C1200,320,1140,320,1080,320C1020,320,960,320,900,320C840,320,780,320,720,320C660,320,600,320,540,320C480,320,420,320,360,320C300,320,240,320,180,320C120,320,60,320,30,320L0,320Z"></path></svg>